<svg xmlns="http://www.w3.org/2000/svg" viewBox="0 0 512 512">
  <defs>
    <linearGradient id="bg" x1="0" y1="0" x2="0" y2="1">
      <stop offset="0" stop-color="#34d399"/>
      <stop offset="1" stop-color="#059669"/>
    </linearGradient>
  </defs>
  <rect width="512" height="512" rx="110" fill="#10b981"/>
  <path d="M118 165 C55 130 30 245 88 308 C132 332 168 258 156 202 Z" fill="#8a5a3b"/>
  <path d="M394 165 C457 130 482 245 424 308 C380 332 344 258 356 202 Z" fill="#8a5a3b"/>
  <ellipse cx="256" cy="288" rx="152" ry="142" fill="#fdf1e2"/>
  <ellipse cx="256" cy="336" rx="92" ry="70" fill="#ffffff"/>
  <ellipse cx="176" cy="308" rx="20" ry="11" fill="#f8b4c0" opacity="0.75"/>
  <ellipse cx="336" cy="308" rx="20" ry="11" fill="#f8b4c0" opacity="0.75"/>
  <circle cx="204" cy="266" r="19" fill="#2b2b2b"/>
  <circle cx="308" cy="266" r="19" fill="#2b2b2b"/>
  <circle cx="210" cy="259" r="6" fill="#ffffff"/>
  <circle cx="314" cy="259" r="6" fill="#ffffff"/>
  <ellipse cx="256" cy="324" rx="24" ry="17" fill="#2b2b2b"/>
  <path d="M256 340 Q256 358 232 366" stroke="#2b2b2b" stroke-width="7" fill="none" stroke-linecap="round"/>
  <path d="M256 340 Q256 358 280 366" stroke="#2b2b2b" stroke-width="7" fill="none" stroke-linecap="round"/>
  <path d="M234 364 Q256 400 278 364 Q270 388 256 388 Q242 388 234 364 Z" fill="#f6879c"/>
</svg>
